<svg version="1.2" xmlns="http://www.w3.org/2000/svg" viewBox="0 0 256 256" width="256" height="256">
	<title>New Project</title>
	<style>
		.s0 { fill: #c7cfd7 } 
	</style>
	<path id="info" class="s0" d="m128 256c-70.78 0-128-57.22-128-128 0-70.78 57.22-128 128-128 70.78 0 128 57.22 128 128 0 70.78-57.22 128-128 128zm96-128c0-53.09-42.91-96-96-96-53.09 0-96 42.91-96 96 0 53.09 42.91 96 96 96 53.09 0 96-42.91 96-96zm-116.38-54.88q0-7.59 5.25-12.74 5.25-5.25 12.85-5.25 7.4 0 12.56 5.25 5.25 5.15 5.25 12.75 0 7.4-5.25 12.65-5.16 5.16-12.56 5.16-7.6 0-12.85-5.16-5.25-5.15-5.25-12.65zm36.29 28.21v88.32h14.25v11.34h-61.6v-11.34h14.16v-76.97h-14.16v-11.35z"/>
</svg>