<svg version="1.2" xmlns="http://www.w3.org/2000/svg" viewBox="0 0 512 512" width="512" height="512">
	<style>
		.s0 { fill: #708090 } 
	</style>
	<path id="youtube" fill-rule="evenodd" class="s0" d="m511.05 256.03c0 0 0 83.18-10.81 123.09-5.96 21.63-22.74 39.16-45.11 45.13-39.52 10.82-199.46 10.82-199.46 10.82 0 0-159.57 0-199.09-10.82-22-5.97-39.15-23.5-45.49-45.13-10.44-39.91-10.44-123.09-10.44-123.09 0 0 0-83.18 10.44-122.72 6.34-22.01 23.49-39.17 45.49-45.14 39.52-10.81 199.09-10.81 199.09-10.81 0 0 159.94 0 199.46 10.81 22.37 5.97 39.15 23.13 45.11 45.14 10.81 39.54 10.81 122.72 10.81 122.72zm-173.73 0l-132.36-76.47v153.31z"/>
</svg>