<svg version="1.2" xmlns="http://www.w3.org/2000/svg" viewBox="0 0 248 204" width="248" height="204">
	<title>Logo black</title>
	<style>
		.s0 { fill: #ff8000 } 
	</style>
	<path id="larry" class="s0" d="m221.9 51.3c0.2 2.2 0.2 4.3 0.2 6.5 0 66.8-50.8 143.7-143.7 143.7-27.4 0-54.3-7.8-77.4-22.7q6 0.7 12 0.8c22.8 0 44.8-7.6 62.7-21.7-21.6-0.4-40.5-14.5-47.1-35.1 7.5 1.5 15.3 1.2 22.8-0.8-23.6-4.8-40.6-25.5-40.6-49.5q0-0.4 0-0.7c7.1 3.9 14.9 6.1 23 6.3-22.2-14.8-29.1-44.3-15.7-67.4 25.7 31.6 63.5 50.7 104.1 52.8-4-17.6 1.5-35.9 14.6-48.3 20.4-19.1 52.4-18.1 71.5 2.2 11.3-2.2 22.1-6.4 32-12.2-3.7 11.6-11.6 21.6-22.2 27.9 10.1-1.2 19.8-3.9 29-8-6.7 10.2-15.3 19-25.2 26.2z"/>
</svg>