<svg version="1.2" xmlns="http://www.w3.org/2000/svg" viewBox="0 0 458 97" width="458" height="97">
	<title>New Project</title>
	<style>
		.s0 { fill: #000000 } 
	</style>
	<path id="Text" fill-rule="evenodd" class="s0" d="m136.9 9.3l-26.6 85.7h-16.1l-21.1-67.9-21.2 67.9h-16.1l-26.6-85.8h-9.1v-7.5h44.3v7.5h-10l17.8 57.4 20.1-64.9h17.8l20.5 65.9 18.1-58.4h-11.1v-7.5h28.9v7.5zm63.8 87.6q-23.6 0-37-12.9-13.4-12.8-13.4-35.5 0-22.6 13.4-35.5 13.5-12.9 37-12.9 23.5 0 36.9 12.9 13.4 12.8 13.4 35.5 0 22.7-13.5 35.5-13.3 12.9-36.8 12.9zm0-7.6q11.9 0.1 17.7-10 5.8-10.1 5.8-30.8 0-20.7-5.8-30.8-5.8-10-17.8-10-11.8 0-17.7 10.2-5.8 10.1-5.8 30.6 0 20.5 5.8 30.7 5.9 10.2 17.8 10.2zm128 5.7h-49v-7.6h12.3v-77.2l-25.5 0.1v14.7h-8.6v-23.3h92.5v23.3h-8.4v-14.7h-25.8v77.1h12.5zm76.9 0h-47.9v-7.5h11.9v-78.2h-11.9v-7.6h47.9q25.1 0 38.4 12 13.3 12 13.3 34.6 0 22.7-13.3 34.7-13.4 12-38.4 12zm-11.9-85.7v78.2h8.7q14.6 0 21.4-9.4 6.8-9.4 6.8-29.8 0-20.3-6.8-29.6-6.7-9.4-21.4-9.4z"/>
</svg>