<svg version="1.2" xmlns="http://www.w3.org/2000/svg" viewBox="0 0 800 800" width="800" height="800">
	<title>basic-cloud-svgrepo-com</title>
	<style>
		.s0 { fill: #e7eff7 } 
	</style>
	<g>
		<path id="Layer copy" fill-rule="evenodd" class="s0" d="m800 476c0 95.5-77 173-172.3 173.6h-439.6v-0.4c-104.9-6.4-188.1-93.8-188.1-200.4 0-111 89.6-200.8 200.4-200.8 31.4 0 60.9 7.2 87.4 20 23.2-68.4 87.9-117.6 164.1-117.6 88.5 0 161.5 66.4 172.1 152 0.7 0 1.7 0 2.4 0 95.9 0 173.4 77.7 173.6 173.6zm-433.6 81l-69.1-186.6h-57.4l-69.1 186.6h48.3l11.9-34h75.3l11.7 34zm-72.2-68.6h-51.2l25.7-74.3zm145.1 68.7v-64.8h31.7q35.7 0 54.7-15.7 19.1-15.9 19.1-45.3 0-29.2-19.1-45-19-15.9-54.7-15.9h-79.8v186.7zm48.2-145q7.6 6.7 7.6 19.2 0 12.5-7.6 19.4-7.6 6.7-21.6 6.7h-26.6v-52.1h26.6q14 0 21.6 6.8zm139.4 145v-186.7h-48.1v186.7z"/>
	</g>
</svg>