<svg version="1.2" xmlns="http://www.w3.org/2000/svg" viewBox="0 0 512 512" width="512" height="512">
	<title>New Project</title>
	<style>
		.s0 { fill: #0c1014 } 
	</style>
	<path id="cross" class="s0" d="m436.7 75.7c12.5 12.5 12.5 32.7 0 45.2l-316.8 316.8c-12.5 12.5-32.7 12.5-45.2 0-12.5-12.5-12.5-32.7 0-45.2l316.8-316.8c12.5-12.5 32.7-12.5 45.2 0zm0 360.6c-12.5 12.5-32.7 12.5-45.2 0l-316.8-316.8c-12.5-12.5-12.5-32.7 0-45.2 12.5-12.5 32.7-12.5 45.2 0l316.8 316.8c12.5 12.5 12.5 32.7 0 45.2z"/>
</svg>