<svg version="1.2" xmlns="http://www.w3.org/2000/svg" viewBox="0 0 1000 1000" width="1000" height="1000">
	<title>Logo</title>
	<style>
		.s0 { fill: #ffffff } 
	</style>
	<path id="Oval" fill-rule="evenodd" class="s0" d="m500 1000c-276.5 0-500-223.5-500-500 0-276.5 223.5-500 500-500 276.5 0 500 223.5 500 500 0 276.5-223.5 500-500 500zm-310.9-477.7c-2.1 17.3 22.8 22.7 54.1 32.9 25.5 8.3 59.8 18 77.7 18.4q24.3 0.5 54.2-20 204.3-137.9 210.9-139.4c3.1-0.7 7.4-1.6 10.4 1 2.9 2.6 2.6 7.5 2.3 8.8-2.5 10.6-130.4 126.9-137.8 134.6-28.1 29.2-60.1 47.1-10.7 79.6 42.7 28.1 67.5 46.1 111.5 75 28.2 18.4 50.2 40.2 79.2 37.6 13.4-1.3 27.2-13.8 34.2-51.3 16.6-88.5 49.1-280.4 56.7-359.5 0.6-6.9-0.2-15.8-0.9-19.6-0.6-3.9-2-9.5-7.1-13.6-6-4.8-15.2-5.9-19.4-5.8-18.8 0.3-47.6 10.4-186.5 68.1q-72.9 30.4-291.6 125.6-35.5 14.1-37.2 27.6z"/>
</svg>