<svg version="1.2" xmlns="http://www.w3.org/2000/svg" viewBox="0 0 96 96" width="96" height="96">
	<title>telegram</title>
	<style>
		.s0 { fill: #ffffff } 
	</style>
	<path id="Oval" fill-rule="evenodd" class="s0" d="m48 96c-26.5 0-48-21.5-48-48 0-26.5 21.5-48 48-48 26.5 0 48 21.5 48 48 0 26.5-21.5 48-48 48zm-29.8-45.9c-0.2 1.7 2.1 2.2 5.1 3.2 2.5 0.8 5.8 1.7 7.5 1.8q2.3 0 5.2-2 19.6-13.2 20.3-13.3c0.3-0.1 0.7-0.2 1 0.1 0.2 0.2 0.2 0.7 0.2 0.8-0.3 1-12.5 12.2-13.3 12.9-2.7 2.8-5.7 4.5-1 7.7 4.1 2.7 6.5 4.4 10.7 7.2 2.7 1.7 4.8 3.8 7.6 3.6 1.3-0.1 2.6-1.3 3.3-4.9 1.6-8.5 4.7-27 5.5-34.6 0-0.6-0.1-1.5-0.1-1.8-0.1-0.4-0.2-1-0.7-1.3-0.6-0.5-1.5-0.6-1.9-0.6-1.8 0-4.5 1-17.9 6.5q-7 3-28 12.1-3.4 1.3-3.5 2.6z"/>
</svg>