<svg version="1.2" xmlns="http://www.w3.org/2000/svg" viewBox="0 0 512 512" width="512" height="512">
	<style>
		.s0 { fill: #e7eff7 } 
	</style>
	<path id="outline" fill-rule="evenodd" class="s0" d="m256 512c-141.6 0-256-114.4-256-256 0-141.6 114.4-256 256-256 141.6 0 256 114.4 256 256 0 141.6-114.4 256-256 256zm192-256c0-106.2-85.8-192-192-192-106.2 0-192 85.8-192 192 0 106.2 85.8 192 192 192 106.2 0 192-85.8 192-192z"/>
	<path id="body" fill-rule="evenodd" class="s0" d="m256 264c82.7 0 153.1 52.1 180.1 125.3-40.7 55.1-106.2 90.7-180.1 90.7-73.9 0-139.4-35.6-180.1-90.7 27-73.2 97.4-125.3 180.1-125.3z"/>
	<path id="head" fill-rule="evenodd" class="s0" d="m256 248c-35.4 0-64-28.6-64-64 0-35.4 28.6-64 64-64 35.4 0 64 28.6 64 64 0 35.4-28.6 64-64 64z"/>
</svg>
