<svg version="1.2" xmlns="http://www.w3.org/2000/svg" viewBox="0 0 512 512" width="512" height="512">
	<style>
		.s0 { fill: #e7eff7 } 
	</style>
	<path id="line 2" fill-rule="evenodd" class="s0" d="m32 374h448c17.7 0 32 14.3 32 32 0 17.7-14.3 32-32 32h-448c-17.7 0-32-14.3-32-32 0-17.7 14.3-32 32-32z"/>
	<path id="line 1" fill-rule="evenodd" class="s0" d="m32 224h448c17.7 0 32 14.3 32 32 0 17.7-14.3 32-32 32h-448c-17.7 0-32-14.3-32-32 0-17.7 14.3-32 32-32z"/>
	<path id="line 0" fill-rule="evenodd" class="s0" d="m32 74h448c17.7 0 32 14.3 32 32 0 17.7-14.3 32-32 32h-448c-17.7 0-32-14.3-32-32 0-17.7 14.3-32 32-32z"/>
</svg>