<svg version="1.2" xmlns="http://www.w3.org/2000/svg" viewBox="0 0 256 256" width="64" height="64">
	<style>
		.s0 { fill: #ffff00 } 
	</style>
	<path id="outline" fill-rule="evenodd" class="s0" d="m128 256c-70.8 0-128-57.2-128-128 0-70.8 57.2-128 128-128 70.8 0 128 57.2 128 128 0 70.8-57.2 128-128 128zm96-128c0-53.1-42.9-96-96-96-53.1 0-96 42.9-96 96 0 53.1 42.9 96 96 96 53.1 0 96-42.9 96-96z"/>
	<path id="semicircle" fill-rule="evenodd" class="s0" d="m16 128c0-61.9 50.1-112 112-112v80c-17.7 0-32 14.3-32 32 0 17.7 14.3 32 32 32v80c-61.9 0-112-50.1-112-112z"/>
	<path id="this thing" fill-rule="evenodd" class="s0" d="m160 128c0 17.7-14.3 32-32 32v-64c17.7 0 32 14.3 32 32z"/>
</svg>